<svg xmlns="http://www.w3.org/2000/svg" version="1.1" xmlns:xlink="http://www.w3.org/1999/xlink" width="1000" height="1000"><style>
    #light-icon {
      display: inline;
    }
    #dark-icon {
      display: none;
    }

    @media (prefers-color-scheme: dark) {
      #light-icon {
        display: none;
      }
      #dark-icon {
        display: inline;
      }
    }
  </style><g id="light-icon"><svg xmlns="http://www.w3.org/2000/svg" version="1.1" xmlns:xlink="http://www.w3.org/1999/xlink" width="1000" height="1000"><g><g transform="matrix(1.25,0,0,1.25,0,8.75)"><svg xmlns="http://www.w3.org/2000/svg" width="800" height="786" viewBox="0 0 800 786" fill="none"><path fill-rule="evenodd" clip-rule="evenodd" d="M706.291 630.079C705.137 629.823 703.992 629.564 702.839 629.316C702.164 632.724 694.747 634.997 694.091 638.405C693.656 640.582 699.973 643.883 699.52 646.066C700.39 646.245 701.25 646.448 702.139 646.626C703.53 641.122 704.907 635.601 706.291 630.079ZM40.0554 355.901C39.7266 355.2 39.3974 354.463 39.0524 353.735C36.0177 355.972 32.867 358.085 30.0634 360.622C29.611 361.022 30.7827 363.242 31.1992 364.644C32.6907 364.148 34.7041 364.111 35.5653 363.091C37.3749 360.969 38.5908 358.333 40.0554 355.901ZM30.1525 381.812C29.3891 381.431 28.6099 381.04 27.8104 380.659C25.9024 382.371 22.7006 383.898 22.4336 385.86C22.1591 387.814 24.8122 390.157 26.1877 392.35C26.9055 392.233 27.6341 392.11 28.3516 391.993C28.9458 388.603 29.5491 385.204 30.1525 381.812ZM680.898 650.131C680.02 650.31 679.115 650.506 678.217 650.673C678.927 653.888 672.886 656.221 673.329 658.325C673.792 660.403 680.703 662.266 681.19 664.504C693.097 657.748 679.522 654.811 680.898 650.131ZM661.708 653.16C662.727 655.76 662.816 656.533 663.232 656.976C664.767 658.565 656.171 662.808 657.723 664.273C653.944 671.321 664.494 669.786 670.845 672.813C672.061 665.126 670.313 658.761 661.708 653.16ZM290.456 52.083C289.311 52.2434 288.175 52.4006 287.031 52.5447C287.92 57.604 288.698 62.6542 289.8 67.6343C290.013 68.5141 291.539 69.0996 292.471 69.8262C293.162 68.6288 294.626 67.261 294.386 66.2503C293.33 61.466 291.813 56.8045 290.456 52.083ZM252.909 40.755C255.056 45.035 256.458 47.8223 258.143 51.1688C258.623 49.1973 258.907 48.0252 259.04 47.5016C261.781 48.5488 264.54 49.6051 267.432 50.7071C271.088 32.3308 258.951 44.1644 252.909 40.755ZM400.746 177.387C395.264 177.387 390.393 176.598 385.904 177.593C381.662 178.56 377.822 181.409 373.767 183.345C373.103 183.655 372.25 183.566 371.469 183.646C356.634 185.075 343.53 190.082 333.736 201.959C332.91 202.953 332.04 204.179 330.906 204.657C320.515 209.096 317.1 219.756 312.654 228.216C306.923 239.109 304.315 251.918 301.839 264.186C299.061 277.821 301.12 291.962 306.906 304.149C312.833 316.585 319.115 329.11 330.373 338.822C337.63 345.053 343.486 352.883 353.396 354.002C361.753 354.95 361.549 360.064 360.459 365.478C357.859 378.324 354.532 390.999 351.826 403.817C350.938 408.088 351.578 412.695 350.664 416.965C348.525 426.809 345.385 436.441 343.53 446.329C340.31 463.443 341.135 481.162 334.312 497.814C331.499 504.702 332.536 513.038 330.948 520.529C328.758 530.934 324.553 540.975 323.292 551.405C321.571 565.926 320.736 580.467 314.926 594.163C314.233 595.816 313.951 598.372 314.766 599.773C317.89 605.26 320.648 609.983 329.246 609.272C344.905 607.995 360.724 609.085 376.473 608.891C402.343 608.509 428.208 607.834 454.06 607.354C459.916 607.249 465.78 607.028 471.602 607.434C477.163 607.834 479.71 604.47 479.614 600.182C479.417 592.841 478.256 585.455 476.81 578.176C475.053 569.166 472.249 560.343 470.537 551.315C467.839 537.006 465.914 522.58 463.216 508.271C460.689 494.833 457.636 481.472 454.673 468.112C452.854 459.927 450.68 451.779 448.871 443.604C447.051 435.392 445.357 427.182 443.821 418.936C441.925 408.639 440.14 398.287 438.499 387.955C437 378.358 435.154 368.773 434.72 359.114C434.542 355.332 435.951 349.642 443.05 351.356C444.941 351.818 447.496 350.495 449.5 349.484C465.026 341.654 470.519 325.081 481.085 312.937C481.521 312.466 481.218 311.41 481.467 310.683C483.02 305.845 484.43 300.928 486.268 296.204C494.953 273.887 491.91 252.344 481.574 231.581C477.546 223.513 471.982 216.224 467.288 208.474C463.253 201.826 458.488 196.277 450.555 194.042C447.957 193.321 444.568 192.106 443.458 190.064C440.183 183.966 435.278 182.953 429.227 183.584C427.798 183.726 425.767 183.52 424.862 182.608C417.639 175.391 408.545 177.744 400.746 177.387ZM437.044 782.601C422.085 783.791 407.154 785.78 392.184 785.993C378.291 786.134 364.335 784.252 350.405 783.525C342.865 783.116 335.199 783.898 327.747 782.957C311.812 780.915 295.956 778.073 280.084 775.606C275.754 774.95 271.371 774.701 267.087 773.884C253.866 771.292 239.583 770.777 227.783 765.115C216.152 759.539 202.017 761.014 192.027 750.84C187.911 746.65 180.821 745.479 175.117 742.815C165.836 738.449 155.314 735.572 147.666 729.233C139.255 722.293 126.719 722.025 120.916 710.93C118.788 706.847 113.268 704.165 108.788 701.804C95.2041 694.614 86.9893 682.204 78.0186 670.611C69.1912 659.221 60.6825 647.522 52.6709 635.52C48.0666 628.641 44.8451 620.83 40.7638 613.55C32.7343 599.277 28.8131 583.61 24.8467 567.933C24.3597 566.024 22.8698 564.374 21.8577 562.58C20.8363 560.777 18.6015 558.533 19.0448 557.289C23.1079 546.105 13.3049 538.4 12.1599 528.458C11.0336 518.685 7.36872 509.221 4.97351 499.59C4.48504 497.601 4.85742 495.436 4.61934 493.377C3.16383 480.905 1.61047 468.45 0.218348 455.988C-0.0486659 453.572 0.465554 451.078 0.4402 448.629C0.323729 432.889 -0.137803 417.15 0.040471 401.422C0.271039 381.13 -0.314096 360.712 1.85015 340.623C4.17405 319.07 8.73508 297.676 13.3302 276.463C16.9333 259.747 21.6453 243.227 26.7455 226.903C29.5147 218.07 33.9953 209.762 37.9692 201.337C42.3793 192.053 46.8329 182.766 51.7209 173.713C61.3219 155.888 70.318 137.762 87.1403 124.864C94.007 119.574 98.4075 111.176 104.68 104.899C110.845 98.7218 118.388 93.8745 124.457 87.624C131.527 80.3465 141.864 77.8605 148.083 68.5851C151.728 63.0986 161.33 61.537 168.303 58.3498C180.068 52.979 191.7 47.2094 203.73 42.486C218.245 36.7955 233.079 31.9584 247.781 26.8007C259.695 22.6029 271.417 17.3741 283.669 14.6212C294.041 12.3057 305.068 13.0333 315.769 12.0571C319.21 11.7456 322.521 9.8552 325.99 9.48281C333.459 8.66597 341.003 8.6386 348.463 7.78626C352.723 7.31746 356.909 4.73405 361.017 4.99077C370.918 5.6209 380.262 3.92526 389.941 2.09778C399.008 0.392067 408.865 3.3855 418.305 2.92381C423.514 2.63767 429.884 6.62435 434.231 0.251003C434.48 -0.122407 435.81 -0.0422455 436.493 0.251003C455.346 8.10581 475.416 7.81363 495.282 9.76592C510.205 11.222 525.03 14.6669 539.606 18.3777C558.878 23.3122 578.025 28.8687 596.86 35.2065C608.536 39.105 619.767 44.5367 630.815 50.0759C641.123 55.2245 651.353 60.8003 660.881 67.2792C676.312 77.7895 693.132 86.4967 704.746 102.077C714.55 115.161 726.111 126.967 735.375 140.362C744.531 153.624 752.151 168.005 759.701 182.279C762.621 187.81 763.24 194.52 765.441 200.493C770.117 213.136 776.151 225.394 779.779 238.291C785.183 257.634 789.175 277.375 793.318 297.03C794.312 301.796 793.007 307.016 793.674 311.89C794.596 318.582 796.795 325.098 797.755 331.809C798.836 339.461 799.627 347.236 799.724 354.969C799.999 374.054 800.22 393.166 799.609 412.242C799.387 418.865 796.361 425.372 795.198 432.029C794.204 437.63 793.69 443.364 793.619 449.036C793.425 464.251 791.544 479.068 787.153 493.713C784.58 502.27 784.42 511.511 782.361 520.274C781.102 525.662 778.209 530.641 776.301 535.904C769.46 554.84 763.313 574.031 755.789 592.709C750.935 604.675 744.955 616.426 737.867 627.194C731.026 637.608 722.064 646.626 714.072 656.274C709.307 662.036 705.244 668.542 699.752 673.461C687.773 684.156 675.431 694.524 662.603 704.183C650.226 713.486 637.113 721.76 624.195 730.335C622.136 731.702 619.35 731.844 617.089 732.962C613.495 734.72 610.001 736.709 606.558 738.766C605.261 739.549 604.419 741.324 603.079 741.821C593.656 745.353 584.093 748.478 574.732 752.154C568.459 754.603 562.64 758.279 556.296 760.444C549.366 762.806 542.099 764.367 534.897 765.752C529.785 766.711 524.889 766.64 520.417 770.83C517.782 773.281 512.104 772.339 507.826 773.032C484.279 776.761 460.776 780.471 437.231 784.2C437.167 783.667 437.105 783.134 437.044 782.601Z" fill="#4F1848"></path></svg></g></g></svg></g><g id="dark-icon"><svg xmlns="http://www.w3.org/2000/svg" version="1.1" xmlns:xlink="http://www.w3.org/1999/xlink" width="1000" height="1000"><g><g transform="matrix(1.25,0,0,1.25,0,8.75)"><svg xmlns="http://www.w3.org/2000/svg" width="800" height="786" viewBox="0 0 800 786" fill="none"><path fill-rule="evenodd" clip-rule="evenodd" d="M706.291 630.078C705.137 629.823 703.992 629.564 702.839 629.315C702.164 632.724 694.747 634.997 694.091 638.405C693.656 640.582 699.973 643.882 699.52 646.066C700.39 646.245 701.25 646.448 702.139 646.626C703.53 641.121 704.907 635.6 706.291 630.078ZM40.0554 355.901C39.7266 355.2 39.3974 354.463 39.0524 353.735C36.0177 355.972 32.867 358.085 30.0634 360.622C29.611 361.022 30.7827 363.242 31.1992 364.644C32.6907 364.147 34.7041 364.111 35.5653 363.091C37.3749 360.969 38.5908 358.333 40.0554 355.901ZM30.1525 381.812C29.3891 381.431 28.6099 381.04 27.8104 380.659C25.9024 382.37 22.7006 383.898 22.4336 385.86C22.1591 387.814 24.8122 390.157 26.1877 392.35C26.9055 392.233 27.6341 392.11 28.3516 391.993C28.9458 388.603 29.5491 385.203 30.1525 381.812ZM680.898 650.131C680.02 650.31 679.115 650.505 678.217 650.673C678.927 653.887 672.886 656.221 673.329 658.325C673.792 660.403 680.703 662.266 681.19 664.504C693.097 657.748 679.522 654.811 680.898 650.131ZM661.708 653.16C662.727 655.76 662.816 656.533 663.232 656.976C664.767 658.565 656.171 662.808 657.723 664.273C653.944 671.321 664.494 669.786 670.845 672.813C672.061 665.126 670.313 658.761 661.708 653.16ZM290.456 52.0829C289.311 52.2432 288.175 52.4005 287.031 52.5446C287.92 57.6039 288.698 62.6541 289.8 67.6342C290.013 68.514 291.539 69.0995 292.471 69.826C293.162 68.6287 294.626 67.2609 294.386 66.2502C293.33 61.4659 291.813 56.8043 290.456 52.0829ZM252.909 40.7548C255.056 45.0348 256.458 47.8222 258.143 51.1687C258.623 49.1971 258.907 48.0251 259.04 47.5015C261.781 48.5487 264.54 49.605 267.432 50.7069C271.088 32.3307 258.951 44.1642 252.909 40.7548ZM400.746 177.386C395.264 177.386 390.393 176.598 385.904 177.592C381.662 178.559 377.822 181.409 373.767 183.345C373.103 183.655 372.25 183.566 371.469 183.646C356.634 185.075 343.53 190.081 333.736 201.958C332.91 202.953 332.04 204.179 330.906 204.657C320.515 209.096 317.1 219.756 312.654 228.216C306.923 239.109 304.315 251.918 301.839 264.186C299.061 277.821 301.12 291.962 306.906 304.149C312.833 316.585 319.115 329.11 330.373 338.821C337.63 345.053 343.486 352.883 353.396 354.001C361.753 354.95 361.549 360.064 360.459 365.478C357.859 378.324 354.532 390.998 351.826 403.817C350.938 408.088 351.578 412.695 350.664 416.965C348.525 426.809 345.385 436.441 343.53 446.329C340.31 463.443 341.135 481.162 334.312 497.814C331.499 504.702 332.536 513.038 330.948 520.529C328.758 530.934 324.553 540.974 323.292 551.405C321.571 565.926 320.736 580.467 314.926 594.163C314.233 595.816 313.951 598.372 314.766 599.773C317.89 605.26 320.648 609.983 329.246 609.272C344.905 607.994 360.724 609.085 376.473 608.89C402.343 608.509 428.208 607.834 454.06 607.354C459.916 607.249 465.78 607.027 471.602 607.434C477.163 607.834 479.71 604.469 479.614 600.182C479.417 592.841 478.256 585.455 476.81 578.175C475.053 569.166 472.249 560.343 470.537 551.315C467.839 537.006 465.914 522.58 463.216 508.271C460.689 494.833 457.636 481.472 454.673 468.112C452.854 459.927 450.68 451.779 448.871 443.604C447.051 435.392 445.357 427.182 443.821 418.936C441.925 408.639 440.14 398.287 438.499 387.955C437 378.358 435.154 368.772 434.72 359.113C434.542 355.332 435.951 349.642 443.05 351.356C444.941 351.818 447.496 350.495 449.5 349.484C465.026 341.653 470.519 325.081 481.085 312.936C481.521 312.466 481.218 311.41 481.467 310.683C483.02 305.845 484.43 300.927 486.268 296.204C494.953 273.887 491.91 252.343 481.574 231.581C477.546 223.513 471.982 216.224 467.288 208.474C463.253 201.826 458.488 196.277 450.555 194.042C447.957 193.321 444.568 192.106 443.458 190.064C440.183 183.966 435.278 182.953 429.227 183.584C427.798 183.726 425.767 183.52 424.862 182.608C417.639 175.391 408.545 177.744 400.746 177.386ZM437.044 782.601C422.085 783.791 407.154 785.779 392.184 785.992C378.291 786.134 364.335 784.252 350.405 783.525C342.865 783.116 335.199 783.898 327.747 782.957C311.812 780.915 295.956 778.073 280.084 775.606C275.754 774.949 271.371 774.701 267.087 773.884C253.866 771.291 239.583 770.777 227.783 765.115C216.152 759.539 202.017 761.014 192.027 750.84C187.911 746.649 180.821 745.478 175.117 742.815C165.836 738.449 155.314 735.572 147.666 729.233C139.255 722.293 126.719 722.025 120.916 710.93C118.788 706.847 113.268 704.165 108.788 701.804C95.2041 694.613 86.9893 682.204 78.0186 670.611C69.1912 659.221 60.6825 647.522 52.6709 635.52C48.0666 628.641 44.8451 620.829 40.7638 613.55C32.7343 599.277 28.8131 583.61 24.8467 567.933C24.3597 566.024 22.8698 564.373 21.8577 562.579C20.8363 560.777 18.6015 558.533 19.0448 557.289C23.1079 546.105 13.3049 538.4 12.1599 528.458C11.0336 518.684 7.36872 509.221 4.97351 499.59C4.48504 497.601 4.85742 495.436 4.61934 493.377C3.16383 480.905 1.61047 468.45 0.218348 455.988C-0.0486659 453.572 0.465554 451.078 0.4402 448.628C0.323729 432.888 -0.137803 417.15 0.040471 401.421C0.271039 381.129 -0.314096 360.712 1.85015 340.623C4.17405 319.07 8.73508 297.676 13.3302 276.463C16.9333 259.747 21.6453 243.226 26.7455 226.903C29.5147 218.07 33.9953 209.762 37.9692 201.336C42.3793 192.053 46.8329 182.766 51.7209 173.713C61.3219 155.888 70.318 137.762 87.1403 124.863C94.007 119.574 98.4075 111.176 104.68 104.899C110.845 98.7216 118.388 93.8744 124.457 87.6239C131.527 80.3464 141.864 77.8604 148.083 68.585C151.728 63.0985 161.33 61.5369 168.303 58.3497C180.068 52.9789 191.7 47.2093 203.73 42.4859C218.245 36.7954 233.079 31.9583 247.781 26.8006C259.695 22.6028 271.417 17.374 283.669 14.6211C294.041 12.3056 305.068 13.0331 315.769 12.057C319.21 11.7455 322.521 9.85508 325.99 9.48269C333.459 8.66585 341.003 8.63848 348.463 7.78613C352.723 7.31734 356.909 4.73393 361.017 4.99065C370.918 5.62078 380.262 3.92514 389.941 2.09766C399.008 0.391945 408.865 3.38538 418.305 2.92369C423.514 2.63754 429.884 6.62422 434.231 0.250881C434.48 -0.122529 435.81 -0.0423676 436.493 0.250881C455.346 8.10569 475.416 7.81351 495.282 9.76579C510.205 11.2219 525.03 14.6668 539.606 18.3776C558.878 23.3121 578.025 28.8685 596.86 35.2064C608.536 39.1049 619.767 44.5366 630.815 50.0758C641.123 55.2244 651.353 60.8002 660.881 67.2791C676.312 77.7894 693.132 86.4966 704.746 102.077C714.55 115.161 726.111 126.967 735.375 140.362C744.531 153.624 752.151 168.005 759.701 182.279C762.621 187.809 763.24 194.52 765.441 200.493C770.117 213.135 776.151 225.394 779.779 238.291C785.183 257.634 789.175 277.375 793.318 297.03C794.312 301.796 793.007 307.016 793.674 311.89C794.596 318.582 796.795 325.098 797.755 331.809C798.836 339.461 799.627 347.236 799.724 354.968C799.999 374.054 800.22 393.166 799.609 412.242C799.387 418.865 796.361 425.371 795.198 432.029C794.204 437.63 793.69 443.364 793.619 449.036C793.425 464.251 791.544 479.067 787.153 493.713C784.58 502.27 784.42 511.511 782.361 520.273C781.102 525.662 778.209 530.641 776.301 535.904C769.46 554.84 763.313 574.03 755.789 592.709C750.935 604.674 744.955 616.426 737.867 627.194C731.026 637.608 722.064 646.626 714.072 656.274C709.307 662.035 705.244 668.542 699.752 673.461C687.773 684.156 675.431 694.524 662.603 704.183C650.226 713.486 637.113 721.76 624.195 730.335C622.136 731.702 619.35 731.844 617.089 732.962C613.495 734.72 610.001 736.708 606.558 738.766C605.261 739.549 604.419 741.324 603.079 741.82C593.656 745.353 584.093 748.478 574.732 752.154C568.459 754.603 562.64 758.279 556.296 760.444C549.366 762.806 542.099 764.367 534.897 765.752C529.785 766.711 524.889 766.64 520.417 770.83C517.782 773.281 512.104 772.339 507.826 773.032C484.279 776.761 460.776 780.47 437.231 784.2C437.167 783.667 437.105 783.134 437.044 782.601Z" fill="white"></path></svg></g></g></svg></g></svg>